<svg width="215" height="73" viewBox="0 0 215 73" fill="none" xmlns="http://www.w3.org/2000/svg">
<path d="M32.5622 72.4682L26.9032 64.9906L38.1615 64.9458L32.5622 72.4682Z" fill="#C2C2C2"/>
<path d="M0.0224705 6.44237C0.0224705 3.12866 2.70876 0.442368 6.02247 0.442368L59.0225 0.442368C62.3362 0.442368 65.0225 3.12866 65.0225 6.44237V61.4424C65.0225 64.7561 62.3362 67.4424 59.0225 67.4424H6.02247C2.70876 67.4424 0.0224705 64.7561 0.0224705 61.4424L0.0224705 6.44237Z" fill="#C2C2C2"/>
<g clip-path="url(#clip0)">
<path d="M52.1531 40.5713L55.0872 33.2353C55.5783 32.0049 54.633 30.6924 53.2457 30.6924H46.0638C47.4142 28.4775 48.249 25.9345 48.249 23.1924V23.1572C53.0615 22.2431 56.1062 20.9189 56.1062 19.4424C56.1062 17.8838 52.7546 16.501 47.5001 15.5752C46.3707 11.7314 44.1854 7.86424 42.5158 5.87205C41.3495 4.47752 39.3361 4.04393 37.6664 4.8408L34.2781 6.45799C33.1731 6.98533 31.8718 6.98533 30.7669 6.45799L27.3785 4.8408C25.7089 4.04393 23.6955 4.47752 22.5292 5.87205C20.8718 7.86424 18.6743 11.7314 17.5448 15.5752C12.3026 16.501 8.95104 17.8838 8.95104 19.4424C8.95104 20.9189 11.9957 22.2431 16.8082 23.1572V23.1924C16.8082 25.9345 17.643 28.4775 18.9935 30.6924H11.9343C10.5225 30.6924 9.57716 32.0635 10.1296 33.3056L13.297 40.3603C8.37403 43.0908 5.02247 48.1181 5.02247 53.9423V59.1923C5.02247 62.0869 7.4901 64.4423 10.5225 64.4423H54.5225C57.5548 64.4423 60.0225 62.0869 60.0225 59.1923V53.9423C60.0225 48.2705 56.8551 43.3486 52.1531 40.5713V40.5713ZM26.6296 60.6923L21.5225 38.1924L27.6118 41.9424L30.5582 46.6298L26.6296 60.6923ZM38.4153 60.6923L34.4868 46.6298L37.4332 41.9424L43.5225 38.1924L38.4153 60.6923ZM43.5347 25.7119C43.056 27.1064 42.6754 28.5947 41.5091 29.626C40.2691 30.7158 35.6162 32.2509 33.6519 26.6963C33.3082 25.7119 31.7613 25.7119 31.4053 26.6963C29.3182 32.5791 24.5303 30.4931 23.5481 29.626C22.3818 28.5947 21.989 27.1064 21.5225 25.7119C21.4243 25.4189 20.749 25.0439 20.749 25.0322V23.7666C24.2234 24.1885 28.2379 24.4463 32.5347 24.4463C36.8316 24.4463 40.8461 24.2002 44.3205 23.7666V25.0322C44.3082 25.0439 43.633 25.4072 43.5347 25.7119Z" fill="black" fill-opacity="0.47"/>
</g>
<path d="M90.445 41.229C90.537 41.4283 90.583 41.6277 90.583 41.827C90.583 42.1797 90.4373 42.4787 90.146 42.724C89.87 42.9693 89.548 43.092 89.18 43.092C88.9347 43.092 88.7047 43.0307 88.49 42.908C88.2753 42.77 88.1067 42.563 87.984 42.287L86.604 39.205H78.508L77.128 42.287C77.0053 42.563 76.8367 42.77 76.622 42.908C76.4073 43.0307 76.1697 43.092 75.909 43.092C75.5563 43.092 75.2343 42.9693 74.943 42.724C74.6517 42.4787 74.506 42.1797 74.506 41.827C74.506 41.6277 74.552 41.4283 74.644 41.229L80.992 27.59C81.13 27.2833 81.337 27.0533 81.613 26.9C81.9043 26.7313 82.211 26.647 82.533 26.647C82.855 26.647 83.154 26.7313 83.43 26.9C83.7213 27.0533 83.936 27.2833 84.074 27.59L90.445 41.229ZM79.52 36.905H85.592L82.556 30.074L79.52 36.905ZM94.3715 43.138C93.8809 43.138 93.4745 42.977 93.1525 42.655C92.8305 42.3177 92.6695 41.9037 92.6695 41.413C92.6695 40.9223 92.8305 40.516 93.1525 40.194C93.4745 39.8567 93.8809 39.688 94.3715 39.688C94.8622 39.688 95.2685 39.8567 95.5905 40.194C95.9125 40.516 96.0735 40.9223 96.0735 41.413C96.0735 41.9037 95.9125 42.3177 95.5905 42.655C95.2685 42.977 94.8622 43.138 94.3715 43.138ZM110.56 34.237C110.913 34.237 111.196 34.3443 111.411 34.559C111.626 34.7583 111.733 35.0267 111.733 35.364V40.309C111.733 41.0143 111.641 41.5127 111.457 41.804C111.273 42.0953 110.897 42.333 110.33 42.517C109.717 42.7317 109.004 42.9003 108.191 43.023C107.378 43.1457 106.596 43.207 105.845 43.207C104.174 43.207 102.725 42.8773 101.498 42.218C100.271 41.5587 99.3283 40.608 98.6689 39.366C98.0249 38.1087 97.7029 36.6137 97.7029 34.881C97.7029 33.179 98.0249 31.707 98.6689 30.465C99.3283 29.2077 100.256 28.2493 101.452 27.59C102.648 26.9153 104.059 26.578 105.684 26.578C107.846 26.578 109.617 27.1607 110.997 28.326C111.181 28.4947 111.311 28.6633 111.388 28.832C111.48 29.0007 111.526 29.2 111.526 29.43C111.526 29.7673 111.434 30.051 111.25 30.281C111.066 30.511 110.844 30.626 110.583 30.626C110.414 30.626 110.261 30.603 110.123 30.557C109.985 30.4957 109.824 30.4037 109.64 30.281C108.965 29.8057 108.337 29.476 107.754 29.292C107.171 29.0927 106.512 28.993 105.776 28.993C104.105 28.993 102.84 29.4913 101.981 30.488C101.138 31.4693 100.716 32.9337 100.716 34.881C100.716 38.8677 102.464 40.861 105.96 40.861C107.003 40.861 108.045 40.7153 109.088 40.424V36.353H106.489C106.121 36.353 105.83 36.261 105.615 36.077C105.416 35.893 105.316 35.6323 105.316 35.295C105.316 34.9577 105.416 34.697 105.615 34.513C105.83 34.329 106.121 34.237 106.489 34.237H110.56ZM126.933 43.207C125.753 43.207 124.633 43.0537 123.575 42.747C122.533 42.425 121.682 41.9957 121.022 41.459C120.67 41.1983 120.493 40.8303 120.493 40.355C120.493 40.033 120.585 39.757 120.769 39.527C120.969 39.2817 121.199 39.159 121.459 39.159C121.735 39.159 122.05 39.2663 122.402 39.481C123.062 39.9563 123.752 40.3013 124.472 40.516C125.193 40.7307 125.99 40.838 126.864 40.838C127.984 40.838 128.842 40.6463 129.44 40.263C130.038 39.8643 130.337 39.2893 130.337 38.538C130.337 37.9553 130.054 37.5107 129.486 37.204C128.934 36.882 128.007 36.5753 126.703 36.284C125.354 35.9927 124.258 35.6553 123.414 35.272C122.571 34.8887 121.935 34.398 121.505 33.8C121.076 33.202 120.861 32.443 120.861 31.523C120.861 30.5723 121.13 29.7213 121.666 28.97C122.203 28.2187 122.947 27.636 123.897 27.222C124.863 26.7927 125.944 26.578 127.14 26.578C129.333 26.578 131.119 27.1607 132.499 28.326C132.699 28.4947 132.837 28.6633 132.913 28.832C133.005 28.9853 133.051 29.1847 133.051 29.43C133.051 29.752 132.952 30.0357 132.752 30.281C132.568 30.511 132.346 30.626 132.085 30.626C131.932 30.626 131.786 30.603 131.648 30.557C131.526 30.511 131.357 30.4267 131.142 30.304C130.514 29.844 129.9 29.5067 129.302 29.292C128.72 29.062 127.999 28.947 127.14 28.947C126.098 28.947 125.27 29.1617 124.656 29.591C124.058 30.005 123.759 30.5877 123.759 31.339C123.759 31.9677 124.028 32.4507 124.564 32.788C125.101 33.1253 126.013 33.4397 127.301 33.731C128.666 34.0377 129.77 34.3827 130.613 34.766C131.472 35.134 132.124 35.6093 132.568 36.192C133.028 36.7747 133.258 37.503 133.258 38.377C133.258 39.3277 132.99 40.171 132.453 40.907C131.932 41.6277 131.188 42.195 130.222 42.609C129.272 43.0077 128.175 43.207 126.933 43.207ZM140.864 43.184C139.714 43.184 138.702 42.9463 137.828 42.471C136.97 41.9957 136.303 41.3133 135.827 40.424C135.352 39.5347 135.114 38.4997 135.114 37.319C135.114 36.1383 135.352 35.111 135.827 34.237C136.303 33.3477 136.97 32.6653 137.828 32.19C138.702 31.7147 139.714 31.477 140.864 31.477C142.014 31.477 143.019 31.7147 143.877 32.19C144.751 32.6653 145.418 33.3477 145.878 34.237C146.354 35.111 146.591 36.1383 146.591 37.319C146.591 38.4997 146.354 39.5347 145.878 40.424C145.418 41.3133 144.751 41.9957 143.877 42.471C143.019 42.9463 142.014 43.184 140.864 43.184ZM140.841 40.953C141.777 40.953 142.49 40.6463 142.98 40.033C143.471 39.4197 143.716 38.515 143.716 37.319C143.716 36.1383 143.471 35.2413 142.98 34.628C142.49 33.9993 141.784 33.685 140.864 33.685C139.944 33.685 139.231 33.9993 138.725 34.628C138.235 35.2413 137.989 36.1383 137.989 37.319C137.989 38.515 138.235 39.4197 138.725 40.033C139.216 40.6463 139.921 40.953 140.841 40.953ZM150.391 43.138C149.977 43.138 149.632 43.023 149.356 42.793C149.095 42.5477 148.965 42.2027 148.965 41.758V28.027C148.965 27.5823 149.095 27.245 149.356 27.015C149.632 26.785 149.977 26.67 150.391 26.67C150.805 26.67 151.15 26.785 151.426 27.015C151.702 27.245 151.84 27.5823 151.84 28.027V41.758C151.84 42.2027 151.702 42.5477 151.426 42.793C151.15 43.023 150.805 43.138 150.391 43.138ZM163.683 31.523C164.127 31.523 164.48 31.6457 164.741 31.891C165.001 32.1363 165.132 32.466 165.132 32.88V41.804C165.132 42.2027 164.994 42.5247 164.718 42.77C164.457 43.0153 164.112 43.138 163.683 43.138C163.269 43.138 162.939 43.023 162.694 42.793C162.448 42.563 162.326 42.2487 162.326 41.85V41.275C161.973 41.8883 161.498 42.3637 160.9 42.701C160.302 43.023 159.627 43.184 158.876 43.184C156.116 43.184 154.736 41.6353 154.736 38.538V32.88C154.736 32.466 154.866 32.1363 155.127 31.891C155.387 31.6457 155.732 31.523 156.162 31.523C156.606 31.523 156.959 31.6457 157.22 31.891C157.48 32.1363 157.611 32.466 157.611 32.88V38.561C157.611 39.3583 157.772 39.9487 158.094 40.332C158.416 40.7153 158.922 40.907 159.612 40.907C160.409 40.907 161.045 40.6463 161.521 40.125C162.011 39.5883 162.257 38.883 162.257 38.009V32.88C162.257 32.466 162.387 32.1363 162.648 31.891C162.908 31.6457 163.253 31.523 163.683 31.523ZM176.565 39.872C176.81 39.872 177.017 39.9793 177.186 40.194C177.355 40.4087 177.439 40.677 177.439 40.999C177.439 41.2597 177.378 41.4897 177.255 41.689C177.148 41.873 176.964 42.0417 176.703 42.195C175.875 42.747 174.871 43.069 173.69 43.161L173.598 43.966C173.843 43.9353 174.02 43.92 174.127 43.92C174.602 43.92 175.001 44.058 175.323 44.334C175.66 44.6253 175.829 45.0163 175.829 45.507C175.829 46.0897 175.568 46.565 175.047 46.933C174.541 47.301 173.82 47.485 172.885 47.485C172.241 47.485 171.704 47.4083 171.275 47.255C171.137 47.1937 171.03 47.1093 170.953 47.002C170.876 46.8947 170.838 46.772 170.838 46.634C170.838 46.4193 170.899 46.243 171.022 46.105C171.16 45.9823 171.336 45.9517 171.551 46.013C172.072 46.1357 172.502 46.197 172.839 46.197C173.606 46.197 173.989 45.967 173.989 45.507C173.989 45.3537 173.935 45.231 173.828 45.139C173.721 45.047 173.567 45.001 173.368 45.001C173.215 45.001 173.015 45.024 172.77 45.07C172.525 45.1313 172.371 45.162 172.31 45.162C172.172 45.162 172.057 45.116 171.965 45.024C171.888 44.9473 171.858 44.84 171.873 44.702L172.057 43.115C170.646 42.9003 169.535 42.287 168.722 41.275C167.909 40.2477 167.503 38.952 167.503 37.388C167.503 36.2227 167.741 35.1953 168.216 34.306C168.707 33.4013 169.389 32.7037 170.263 32.213C171.137 31.7223 172.141 31.477 173.276 31.477C173.874 31.477 174.472 31.5613 175.07 31.73C175.683 31.8987 176.22 32.1287 176.68 32.42C177.171 32.742 177.416 33.1483 177.416 33.639C177.416 33.9763 177.332 34.2523 177.163 34.467C177.01 34.6663 176.803 34.766 176.542 34.766C176.373 34.766 176.197 34.7277 176.013 34.651C175.829 34.5743 175.645 34.4823 175.461 34.375C175.124 34.1757 174.802 34.0223 174.495 33.915C174.188 33.7923 173.836 33.731 173.437 33.731C172.486 33.731 171.75 34.0453 171.229 34.674C170.723 35.2873 170.47 36.1767 170.47 37.342C170.47 38.492 170.723 39.3813 171.229 40.01C171.75 40.6233 172.486 40.93 173.437 40.93C173.82 40.93 174.158 40.8763 174.449 40.769C174.756 40.6463 175.093 40.4853 175.461 40.286C175.691 40.148 175.89 40.0483 176.059 39.987C176.228 39.9103 176.396 39.872 176.565 39.872ZM184.483 43.184C183.333 43.184 182.321 42.9463 181.447 42.471C180.589 41.9957 179.922 41.3133 179.446 40.424C178.971 39.5347 178.733 38.4997 178.733 37.319C178.733 36.1383 178.971 35.111 179.446 34.237C179.922 33.3477 180.589 32.6653 181.447 32.19C182.321 31.7147 183.333 31.477 184.483 31.477C185.633 31.477 186.638 31.7147 187.496 32.19C188.37 32.6653 189.037 33.3477 189.497 34.237C189.973 35.111 190.21 36.1383 190.21 37.319C190.21 38.4997 189.973 39.5347 189.497 40.424C189.037 41.3133 188.37 41.9957 187.496 42.471C186.638 42.9463 185.633 43.184 184.483 43.184ZM184.46 40.953C185.396 40.953 186.109 40.6463 186.599 40.033C187.09 39.4197 187.335 38.515 187.335 37.319C187.335 36.1383 187.09 35.2413 186.599 34.628C186.109 33.9993 185.403 33.685 184.483 33.685C183.563 33.685 182.85 33.9993 182.344 34.628C181.854 35.2413 181.608 36.1383 181.608 37.319C181.608 38.515 181.854 39.4197 182.344 40.033C182.835 40.6463 183.54 40.953 184.46 40.953ZM186.162 29.568C185.886 29.568 185.61 29.5067 185.334 29.384C185.074 29.2613 184.736 29.0773 184.322 28.832C183.985 28.6327 183.717 28.487 183.517 28.395C183.318 28.303 183.134 28.257 182.965 28.257C182.72 28.257 182.521 28.3183 182.367 28.441C182.229 28.5637 182.084 28.74 181.93 28.97C181.808 29.154 181.7 29.292 181.608 29.384C181.516 29.4607 181.401 29.499 181.263 29.499C181.095 29.499 180.949 29.43 180.826 29.292C180.719 29.1387 180.665 28.947 180.665 28.717C180.665 28.4103 180.757 28.073 180.941 27.705C181.125 27.3217 181.378 26.9997 181.7 26.739C182.038 26.463 182.406 26.325 182.804 26.325C183.08 26.325 183.349 26.3863 183.609 26.509C183.885 26.6317 184.23 26.8157 184.644 27.061C184.982 27.2603 185.25 27.406 185.449 27.498C185.649 27.59 185.833 27.636 186.001 27.636C186.247 27.636 186.438 27.5747 186.576 27.452C186.73 27.3293 186.883 27.153 187.036 26.923C187.159 26.739 187.266 26.6087 187.358 26.532C187.45 26.44 187.565 26.394 187.703 26.394C187.887 26.394 188.033 26.4707 188.14 26.624C188.248 26.762 188.301 26.946 188.301 27.176C188.301 27.4827 188.209 27.8277 188.025 28.211C187.841 28.579 187.581 28.901 187.243 29.177C186.921 29.4377 186.561 29.568 186.162 29.568ZM201.485 39.918C201.746 39.918 201.953 40.0177 202.106 40.217C202.275 40.4163 202.359 40.6847 202.359 41.022C202.359 41.4973 202.075 41.896 201.508 42.218C200.987 42.5093 200.396 42.747 199.737 42.931C199.078 43.0997 198.449 43.184 197.851 43.184C196.042 43.184 194.608 42.6627 193.55 41.62C192.492 40.5773 191.963 39.1513 191.963 37.342C191.963 36.192 192.193 35.1723 192.653 34.283C193.113 33.3937 193.757 32.7037 194.585 32.213C195.428 31.7223 196.379 31.477 197.437 31.477C198.449 31.477 199.331 31.6993 200.082 32.144C200.833 32.5887 201.416 33.2173 201.83 34.03C202.244 34.8427 202.451 35.801 202.451 36.905C202.451 37.5643 202.16 37.894 201.577 37.894H194.792C194.884 38.952 195.183 39.734 195.689 40.24C196.195 40.7307 196.931 40.976 197.897 40.976C198.388 40.976 198.817 40.9147 199.185 40.792C199.568 40.6693 199.998 40.5007 200.473 40.286C200.933 40.0407 201.27 39.918 201.485 39.918ZM197.506 33.501C196.724 33.501 196.095 33.7463 195.62 34.237C195.16 34.7277 194.884 35.433 194.792 36.353H199.99C199.959 35.4177 199.729 34.7123 199.3 34.237C198.871 33.7463 198.273 33.501 197.506 33.501ZM208.874 43.184C207.202 43.184 205.853 42.8543 204.826 42.195C204.335 41.9037 204.09 41.4897 204.09 40.953C204.09 40.6463 204.174 40.401 204.343 40.217C204.511 40.0177 204.718 39.918 204.964 39.918C205.224 39.918 205.585 40.0407 206.045 40.286C206.535 40.516 206.98 40.6923 207.379 40.815C207.793 40.9377 208.314 40.999 208.943 40.999C209.587 40.999 210.085 40.8917 210.438 40.677C210.806 40.4623 210.99 40.1633 210.99 39.78C210.99 39.5193 210.913 39.3123 210.76 39.159C210.622 39.0057 210.361 38.8677 209.978 38.745C209.61 38.607 209.042 38.4537 208.276 38.285C206.911 38.009 205.93 37.618 205.332 37.112C204.749 36.606 204.458 35.9083 204.458 35.019C204.458 34.3443 204.657 33.7387 205.056 33.202C205.454 32.65 205.999 32.2283 206.689 31.937C207.394 31.6303 208.191 31.477 209.081 31.477C209.725 31.477 210.346 31.5613 210.944 31.73C211.542 31.8833 212.078 32.1133 212.554 32.42C213.044 32.7267 213.29 33.133 213.29 33.639C213.29 33.9457 213.205 34.2063 213.037 34.421C212.868 34.6203 212.661 34.72 212.416 34.72C212.247 34.72 212.078 34.6893 211.91 34.628C211.756 34.5513 211.557 34.444 211.312 34.306C210.867 34.076 210.484 33.9073 210.162 33.8C209.84 33.6773 209.441 33.616 208.966 33.616C208.398 33.616 207.946 33.731 207.609 33.961C207.287 34.191 207.126 34.5053 207.126 34.904C207.126 35.2873 207.294 35.5787 207.632 35.778C207.969 35.9773 208.621 36.1767 209.587 36.376C210.614 36.5907 211.419 36.836 212.002 37.112C212.584 37.388 212.998 37.733 213.244 38.147C213.504 38.561 213.635 39.09 213.635 39.734C213.635 40.7767 213.198 41.6123 212.324 42.241C211.465 42.8697 210.315 43.184 208.874 43.184Z" fill="white"/>
<defs>
<clipPath id="clip0">
<rect width="55" height="60" fill="white" transform="translate(5.02247 4.44237)"/>
</clipPath>
</defs>
</svg>
