<svg width="65" height="73" viewBox="0 0 65 73" fill="none" xmlns="http://www.w3.org/2000/svg">
<path d="M32.5397 72.0258L26.8808 64.5483L38.139 64.5034L32.5397 72.0258Z" fill="#C2C2C2"/>
<path d="M0 6C0 2.68629 2.68629 0 6 0H59C62.3137 0 65 2.68629 65 6V61C65 64.3137 62.3137 67 59 67H6C2.68629 67 0 64.3137 0 61V6Z" fill="#C2C2C2"/>
<g clip-path="url(#clip0)">
<path d="M52.1306 40.1289L55.0647 32.793C55.5558 31.5625 54.6105 30.25 53.2232 30.25H46.0413C47.3917 28.0351 48.2266 25.4922 48.2266 22.75V22.7148C53.0391 21.8008 56.0837 20.4766 56.0837 19C56.0837 17.4414 52.7321 16.0586 47.4777 15.1328C46.3482 11.2891 44.1629 7.42187 42.4933 5.42969C41.327 4.03516 39.3136 3.60156 37.644 4.39844L34.2556 6.01562C33.1507 6.54297 31.8493 6.54297 30.7444 6.01562L27.356 4.39844C25.6864 3.60156 23.673 4.03516 22.5067 5.42969C20.8493 7.42187 18.6518 11.2891 17.5223 15.1328C12.2801 16.0586 8.92857 17.4414 8.92857 19C8.92857 20.4766 11.9732 21.8008 16.7857 22.7148V22.75C16.7857 25.4922 17.6205 28.0351 18.971 30.25H11.9118C10.5 30.25 9.55469 31.6211 10.1071 32.8633L13.2746 39.918C8.35156 42.6484 5 47.6758 5 53.5V58.75C5 61.6445 7.46763 64 10.5 64H54.5C57.5324 64 60 61.6445 60 58.75V53.5C60 47.8281 56.8326 42.9062 52.1306 40.1289V40.1289ZM26.6071 60.25L21.5 37.75L27.5893 41.5L30.5357 46.1875L26.6071 60.25ZM38.3929 60.25L34.4643 46.1875L37.4107 41.5L43.5 37.75L38.3929 60.25ZM43.5123 25.2695C43.0335 26.6641 42.6529 28.1523 41.4866 29.1836C40.2467 30.2734 35.5937 31.8086 33.6295 26.2539C33.2857 25.2695 31.7388 25.2695 31.3828 26.2539C29.2958 32.1367 24.5078 30.0508 23.5257 29.1836C22.3594 28.1523 21.9665 26.6641 21.5 25.2695C21.4018 24.9766 20.7266 24.6016 20.7266 24.5898V23.3242C24.2009 23.7461 28.2154 24.0039 32.5123 24.0039C36.8092 24.0039 40.8237 23.7578 44.298 23.3242V24.5898C44.2857 24.6016 43.6105 24.9648 43.5123 25.2695Z" fill="black" fill-opacity="0.47"/>
</g>
<defs>
<clipPath id="clip0">
<rect width="55" height="60" fill="white" transform="translate(5 4)"/>
</clipPath>
</defs>
</svg>
